<?xml version="1.0" standalone="no"?>
<!DOCTYPE svg PUBLIC "-//W3C//DTD SVG 20010904//EN"
 "http://www.w3.org/TR/2001/REC-SVG-20010904/DTD/svg10.dtd">
<svg version="1.0" xmlns="http://www.w3.org/2000/svg"
 width="700.000000pt" height="700.000000pt" viewBox="0 0 700.000000 700.000000"
 preserveAspectRatio="xMidYMid meet">
<metadata>
Created by potrace 1.14, written by Peter Selinger 2001-2017
</metadata>
<g transform="translate(0.000000,700.000000) scale(0.100000,-0.100000)"
fill="#000000" stroke="none">
<path d="M2035 6102 c-77 -7 -97 -28 -142 -152 -49 -133 -160 -432 -213 -575
-26 -71 -65 -175 -85 -230 -20 -55 -45 -122 -55 -150 -48 -127 -83 -221 -130
-350 -28 -77 -62 -167 -75 -200 -42 -108 -53 -150 -48 -182 6 -36 56 -92 85
-94 10 -1 24 -2 31 -3 22 -4 64 15 85 37 11 12 38 72 60 132 22 61 70 189 105
285 36 96 149 402 252 680 102 278 192 519 200 535 l14 30 451 3 c352 3 450 1
445 -9 -14 -22 -12 -153 2 -204 19 -61 69 -142 114 -179 19 -16 59 -41 89 -55
51 -23 67 -25 210 -27 85 -1 162 -2 171 -3 12 -1 29 -39 62 -143 48 -148 129
-436 167 -593 96 -399 122 -513 269 -1195 55 -256 112 -517 126 -580 15 -63
32 -142 40 -175 7 -33 23 -100 35 -150 12 -49 23 -97 25 -106 9 -44 128 -500
141 -538 32 -95 81 -137 154 -132 62 4 106 36 270 201 174 174 290 338 404
568 101 207 179 471 201 682 4 36 9 79 11 95 6 44 6 289 -1 370 -13 155 -33
263 -89 465 -33 122 -124 329 -203 465 -189 322 -475 601 -793 773 -163 89
-399 174 -541 197 -61 10 -92 21 -101 36 -4 7 -24 50 -44 94 -75 168 -187 305
-289 355 l-50 25 -665 0 c-366 0 -678 -1 -695 -3z m1330 -248 c40 -26 155
-198 141 -211 -3 -4 -44 -8 -90 -10 -100 -5 -135 8 -160 61 -20 42 -20 76 -2
120 23 55 65 70 111 40z m670 -547 c323 -108 625 -326 840 -605 6 -7 15 -18
20 -25 6 -7 28 -39 49 -72 21 -33 46 -71 56 -85 9 -14 37 -65 62 -115 194
-382 257 -818 182 -1255 -8 -47 -18 -94 -21 -105 -4 -11 -8 -24 -9 -30 -60
-246 -213 -555 -362 -728 -95 -110 -177 -197 -186 -197 -5 0 -7 5 -66 240 -43
170 -136 575 -175 760 -2 8 -19 89 -39 180 -19 91 -58 271 -86 400 -181 837
-313 1378 -394 1611 -9 24 -16 50 -16 57 0 15 22 11 145 -31z"/>
<path d="M5481 6089 c-35 -14 -46 -28 -143 -196 -258 -449 -380 -678 -381
-716 0 -64 53 -117 118 -117 62 0 84 26 203 241 62 112 123 222 136 244 12 22
36 65 53 95 17 30 52 92 78 137 l47 83 524 0 c288 0 524 -1 524 -3 0 -1 -13
-40 -29 -87 -107 -309 -264 -770 -272 -795 -5 -16 -9 -44 -9 -61 0 -62 76
-120 140 -108 60 12 80 47 150 255 35 107 65 196 65 199 1 3 7 18 13 33 7 16
12 30 12 33 0 5 78 233 160 469 27 77 51 153 54 169 7 39 -15 88 -50 111 -28
19 -54 20 -699 21 -369 0 -681 -3 -694 -7z"/>
<path d="M6144 5559 c-55 -15 -95 -81 -88 -144 10 -92 109 -144 192 -101 44
23 65 59 66 114 2 96 -76 156 -170 131z"/>
<path d="M2387 5275 c-75 -26 -310 -239 -434 -395 -227 -285 -391 -650 -443
-990 -6 -41 -13 -86 -16 -100 -8 -54 -17 -200 -17 -290 -1 -472 157 -942 444
-1322 134 -177 367 -386 569 -511 137 -84 409 -199 522 -221 12 -2 55 -12 93
-21 l70 -16 45 -96 c116 -249 260 -390 416 -410 33 -5 391 -8 796 -8 l738 0
29 30 c27 28 82 173 240 640 265 782 379 1121 475 1407 l117 347 -19 44 c-39
89 -154 97 -206 14 -8 -12 -77 -211 -155 -442 -77 -231 -204 -607 -281 -835
-78 -228 -152 -446 -165 -485 -13 -38 -55 -162 -94 -274 -39 -113 -71 -206
-71 -208 0 -2 -218 -3 -485 -3 l-486 1 7 36 c26 136 -18 275 -117 371 -36 35
-118 79 -165 89 -32 6 -30 6 -239 0 -82 -2 -171 -2 -197 0 -47 5 -48 6 -67 57
-53 142 -180 620 -217 816 -3 14 -16 75 -29 137 -14 61 -27 123 -29 137 -3 15
-10 52 -16 84 -5 31 -12 68 -15 82 -3 14 -8 41 -11 60 -4 19 -8 44 -11 55 -7
39 -32 170 -37 195 -2 14 -7 36 -10 50 -3 14 -8 39 -10 55 -11 67 -45 258 -50
273 -3 9 -7 33 -10 52 -3 19 -10 62 -16 95 -6 33 -13 74 -16 90 -5 32 -20 110
-83 430 -22 110 -42 211 -45 225 -56 285 -139 644 -161 696 -21 52 -83 78
-138 59z m-31 -348 c1 -7 16 -75 34 -152 26 -119 133 -640 146 -715 3 -14 13
-72 24 -130 27 -146 59 -320 64 -350 2 -14 7 -36 10 -50 3 -14 8 -43 12 -65 3
-22 7 -44 8 -50 2 -5 7 -32 11 -60 5 -27 10 -52 10 -55 1 -3 5 -23 9 -45 4
-22 11 -60 17 -85 5 -25 11 -58 13 -75 10 -58 17 -100 26 -140 5 -22 11 -53
14 -70 3 -16 10 -55 16 -85 6 -30 13 -66 16 -80 3 -14 14 -70 25 -125 12 -55
23 -109 25 -120 10 -48 14 -68 49 -215 44 -190 85 -344 125 -474 16 -54 30
-100 30 -101 0 -9 -194 66 -285 110 -835 404 -1243 1425 -938 2345 89 271 259
547 457 742 67 66 77 72 82 45z m1432 -3554 c38 -28 67 -101 58 -147 -11 -60
-43 -88 -107 -92 -77 -5 -101 2 -146 44 -52 49 -143 179 -143 205 0 2 19 3 43
3 23 -1 74 1 112 4 116 9 153 5 183 -17z"/>
<path d="M6345 4385 c-14 -13 -25 -30 -26 -37 -6 -80 -3 -75 -49 -83 -19 -3
-43 -8 -53 -11 -22 -7 -44 -52 -39 -81 5 -33 50 -65 82 -59 47 7 55 -4 59 -85
2 -26 40 -59 70 -59 47 0 71 28 74 84 2 39 7 51 22 56 11 4 26 5 33 2 38 -14
95 42 87 84 -2 11 -4 22 -4 26 -2 15 -55 42 -80 40 -40 -3 -53 11 -57 59 -3
32 -11 50 -29 67 -34 29 -60 28 -90 -3z"/>
<path d="M1151 3818 c-12 -12 -23 -38 -27 -57 -9 -57 -10 -58 -58 -65 -75 -12
-110 -77 -66 -124 12 -12 24 -22 28 -23 4 0 24 -2 45 -4 47 -3 49 -5 50 -55 2
-119 147 -119 147 0 0 43 14 58 50 55 36 -3 79 21 86 50 14 58 -15 94 -79 98
-47 3 -57 14 -57 58 0 74 -74 116 -119 67z"/>
<path d="M872 3029 c-47 -10 -78 -43 -101 -108 -10 -31 -33 -92 -49 -136 -16
-44 -100 -271 -186 -505 -87 -234 -161 -434 -166 -445 -5 -11 -41 -108 -80
-215 -40 -107 -103 -279 -141 -382 -38 -102 -71 -199 -73 -215 -6 -42 18 -90
55 -112 31 -19 57 -20 888 -21 l857 -1 13 36 c8 24 18 35 33 35 11 0 35 15 53
33 25 25 36 50 53 117 11 47 34 139 51 205 18 66 33 129 36 140 2 11 16 70 30
130 33 133 35 183 9 218 -51 68 -161 62 -198 -12 -11 -21 -29 -89 -51 -191 -8
-36 -96 -389 -107 -427 l-12 -43 -51 -1 c-102 -2 -1368 1 -1370 4 -1 1 42 121
96 267 55 146 126 339 160 430 183 496 208 562 307 830 44 118 81 224 82 235
5 43 -1 65 -25 93 -31 37 -69 51 -113 41z"/>
<path d="M943 1615 c-44 -19 -83 -74 -83 -119 0 -133 164 -190 238 -82 73 107
-37 250 -155 201z"/>
</g>
</svg>
