<?xml version="1.0"?>
<svg xmlns="http://www.w3.org/2000/svg" xmlns:xlink="http://www.w3.org/1999/xlink" xmlns:svgjs="http://svgjs.com/svgjs" version="1.1" width="512" height="512" x="0" y="0" viewBox="0 0 24 24" style="enable-background:new 0 0 512 512" xml:space="preserve"><g><path xmlns="http://www.w3.org/2000/svg" d="M20,0H4A4,4,0,0,0,0,4V16a4,4,0,0,0,4,4H6.9l4.451,3.763a1,1,0,0,0,1.292,0L17.1,20H20a4,4,0,0,0,4-4V4A4,4,0,0,0,20,0Zm2,16a2,2,0,0,1-2,2H17.1a2,2,0,0,0-1.291.473L12,21.69,8.193,18.473h0A2,2,0,0,0,6.9,18H4a2,2,0,0,1-2-2V4A2,2,0,0,1,4,2H20a2,2,0,0,1,2,2Z" fill="#ffffff" data-original="#000000"/><path xmlns="http://www.w3.org/2000/svg" d="M7,7h5a1,1,0,0,0,0-2H7A1,1,0,0,0,7,7Z" fill="#ffffff" data-original="#000000"/><path xmlns="http://www.w3.org/2000/svg" d="M17,9H7a1,1,0,0,0,0,2H17a1,1,0,0,0,0-2Z" fill="#ffffff" data-original="#000000"/><path xmlns="http://www.w3.org/2000/svg" d="M17,13H7a1,1,0,0,0,0,2H17a1,1,0,0,0,0-2Z" fill="#ffffff" data-original="#000000"/></g></svg>
