<?xml version="1.0" encoding="UTF-8"?>
<svg version="1.1" viewBox="0 0 512 512" xml:space="preserve" xmlns="http://www.w3.org/2000/svg" fill="#090B2C">
  <rect width="512" height="512" rx="96" fill="#fff"/>
  <path d="m398.63 260.09a6.9133 6.9133 0 0 0-8.7574 4.3481c-18.418 54.758-35.795 106.22-44.222 130.01-5.803-0.0398-47.882-0.33463-72.627-0.34287a6.9133 6.9133 0 0 0-6.9149 6.9103 6.9133 6.9133 0 0 0 6.9104 6.9165c26.303 9e-3 77.537 0.36625 77.553 0.36625a6.914 6.9141 0 0 0 6.5082-4.5835c8.048-22.471 26.658-77.67 45.897-134.87a6.9133 6.9133 0 0 0-4.3481-8.7574z"/>
  <path d="m144.83 248.53a6.9133 6.9133 0 0 0-6.9134 6.9134c0 32.986 12.252 63.053 32.3 85.316 17.762 19.73 41.707 33.367 68.61 37.427 0.71039 0.1158 1.3738 0.20698 1.9762 0.28833a6.9133 6.9133 0 0 0 7.7768-5.9254 6.9133 6.9133 0 0 0-5.9254-7.7768c-0.60938-0.0823-1.1601-0.15805-1.6396-0.23689a6.914 6.9141 0 0 0-0.0919-0.014c-23.599-3.5531-44.673-15.507-60.431-33.014a6.914 6.9141 0 0 0 0-2e-3c-17.781-19.745-28.747-46.497-28.747-76.061a6.9133 6.9133 0 0 0-6.9134-6.9134z"/>
  <path d="m267.78 132.14a6.914 6.9141 0 0 0-6.449 9.4054c14.381 37.219 27.209 108.43 40.798 167.05a6.9133 6.9133 0 0 0 8.2954 5.1726 6.9133 6.9133 0 0 0 5.1742-8.2954c-12.293-53.031-23.75-116.38-37.439-157.55 8.9554 2.0868 17.498 5.3399 25.438 9.7143a6.914 6.9141 0 0 0 2e-3 0c11.178 6.1548 21.198 14.423 29.556 24.306a6.914 6.9141 0 0 0 2e-3 0c16.467 19.461 26.516 45.166 26.531 73.453v0.0452a6.9133 6.9133 0 0 0 6.9134 6.9134 6.9133 6.9133 0 0 0 6.9134-6.9134v-0.0499a6.914 6.9141 0 0 0 0-3e-3c-0.0177-31.56-11.247-60.446-29.804-82.372-9.4215-11.138-20.743-20.494-33.443-27.487h-2e-3c-12.691-6.9929-26.765-11.626-41.664-13.329l2.4359 0.74963c-0.89982-0.47362-3.2429-0.80265-3.2588-0.80265z"/>
  <path d="m245.7 103.69a6.9133 6.9133 0 0 0-6.9134 6.9134 6.9133 6.9133 0 0 0 6.9134 6.9134h2e-3c0.89446 2e-3 2.9503 0.81509 5.9674 4.8593 1.6749 2.245 3.4605 5.442 5.2723 9.1518-0.40951-4e-3 -0.80529-0.0702-1.2156-0.0702a6.9133 6.9133 0 0 0-6.9134 6.9134 6.9133 6.9133 0 0 0 6.9134 6.9134c3.8116 0 7.5732 0.21802 11.263 0.6452a6.914 6.9141 0 0 0 7.0412-9.817c-3.4545-8.8898-7.0415-16.324-11.279-22.004-4.3083-5.775-9.8929-10.404-17.021-10.419a6.914 6.9141 0 0 0-0.0139 0zm28.302 32.349 0.0249 0.0577a6.914 6.9141 0 0 0-2e-3 -6e-3z"/>
  <path d="m242.64 364.77a6.914 6.9141 0 0 0-7.3296 9.4161c3.7638 9.4322 7.7697 17.303 12.594 23.286 4.8244 5.9831 11.081 10.481 18.543 10.481h6.0688c4.0153 0 7.5882-1.8737 10.281-4.2593 7.6714-6.791 8.8906-17.272 5.556-25.271-3.3347-7.9994-11.771-14.471-21.903-13.371a6.914 6.9141 0 0 0-0.0125 6e-3l2e-3 -5e-3c-3.5189 0.38753-7.0973 0.58287-10.727 0.58287-4.4283 0-8.7901-0.29701-13.072-0.86497zm25.302 14.025v2e-3c3.8254-0.41507 6.2763 1.6498 7.6506 4.9466 1.3743 3.2968 1.1236 6.8693-1.9605 9.5982a6.914 6.9141 0 0 0-3e-3 2e-3c-1.027 0.90982-1.2341 0.78391-1.1128 0.78391h-6.0688c-1.9164 0-4.3998-1.1428-7.7799-5.3347-1.8729-2.3227-3.8285-5.6116-5.7944-9.425 0.9484 0.0239 1.8857 0.0951 2.8396 0.0951 4.1211 0 8.202-0.22389 12.23-0.66703z"/>
  <path d="m374.23 104.37a6.914 6.9141 0 0 0-6.0469 3.4489s-15.693 27.097-26.421 47.057a6.9133 6.9133 0 0 0 2.8162 9.3634 6.9133 6.9133 0 0 0 9.3616-2.8177c9.3974-17.484 21.428-38.363 24.231-43.222 23.173 0.16414 51.9 0.0991 61.24 0.0748-4.5537 13.03-10.237 29.559-17.989 52.48a6.9133 6.9133 0 0 0 4.3341 8.763 6.9133 6.9133 0 0 0 8.763-4.3341c9.1081-26.928 16.691-49.152 21.079-61.494a6.914 6.9141 0 0 0-6.5348-9.2286s-48.925 0.1496-74.833-0.0904z"/>
  <path d="m245.65 103.64-75.423 0.55794a6.9133 6.9133 0 0 0-6.862 6.9648 6.9133 6.9133 0 0 0 6.9633 6.862l57.704-0.42703c-1.3044 4.174-1.3627 8.6537-0.22442 12.644 2.3989 8.4095 10.464 15.98 20.922 15.244a6.914 6.9141 0 0 0 3e-3 -2e-3c2.3083-0.16354 4.6452-0.24779 6.9914-0.24779 2.3798 0 4.6989 0.23442 7.0365 0.40364 6.6719 18.42 13.108 43.721 19.35 71.498 6.6835 29.772 13.226 62.116 20.021 91.429a6.914 6.9141 0 0 0 0 2e-3c3.4841 15.015 7.0312 29.244 10.727 41.965a6.914 6.9141 0 0 0 5e-3 0.0156c1.541 5.2592 8.7183 7.8576 13.241 4.3123a6.914 6.9141 0 0 0 6e-3 -5e-3c28.843-22.662 47.405-58.834 47.405-99.447a6.9133 6.9133 0 0 0-6.9134-6.9134 6.9133 6.9133 0 0 0-6.9134 6.9134c0 33.247-13.969 62.83-35.792 82.986-2.8032-10.271-5.5712-21.205-8.2954-32.947v-2e-3c-6.7296-29.03-13.27-61.356-20.001-91.331a6.914 6.9141 0 0 0 0-2e-3c-6.73-29.946-13.616-57.486-21.346-77.52a6.914 6.9141 0 0 0-0.20727-0.48468c0.35829 0.75241 0.35087 0.72826-0.0234-0.0577a6.914 6.9141 0 0 0-6.2308-3.9382h-3e-3a6.914 6.9141 0 0 0-9e-3 -3e-3h-0.0389c-3.9549-0.43046-7.9634-0.69041-12.018-0.69041-2.6815 0-5.3418 0.0978-7.9654 0.28364-3.7354 0.26292-5.6981-1.8912-6.6547-5.2443-0.95661-3.3531-0.36454-6.5279 3.0172-8.4638a6.914 6.9141 0 0 0 6e-3 -4e-3c0.78086-0.44799 1.1965-0.51418 1.5694-0.5143h0.0532a6.914 6.9141 0 0 0-0.0515-13.827c-0.017 0-0.0328 8e-3 -0.0499 8e-3z"/>
  <path d="m172.68 104.62a6.9133 6.9133 0 0 0-8.8835 4.0832l-36.689 99.161a6.9133 6.9133 0 0 0 4.0847 8.8835 6.9133 6.9133 0 0 0 8.8835-4.0847l36.689-99.161a6.9133 6.9133 0 0 0-4.0848-8.8819z"/>
  <path d="m106.44 283.63a6.9133 6.9133 0 0 0-8.8835 4.0848l-41.123 111.13a6.914 6.9141 0 0 0 6.4614 9.3134c25.354 0.0829 72.743 0.37287 98.366 0.081 6e-3 -2e-3 4.892-1.9702 5.3674-2.5559 0.4757-0.5861 0.59949-0.85938 0.71533-1.0738 0.23166-0.42879 0.28085-0.57572 0.33351-0.70598 0.10536-0.26052 0.13073-0.34931 0.16053-0.43794 0.0596-0.17722 0.0887-0.27773 0.12467-0.3974 0.0721-0.23934 0.15045-0.50839 0.24781-0.85254 0.19471-0.68823 0.4596-1.6513 0.78858-2.8661 0.65798-2.4296 1.5664-5.8551 2.6104-9.9134 2.088-8.1166 4.7159-18.747 6.9462-28.909a6.9133 6.9133 0 0 0-5.2692-8.2348 6.9133 6.9133 0 0 0-8.2348 5.2708c-2.1752 9.9108-4.7729 20.421-6.8323 28.427-0.8913 3.4647-1.6095 6.1593-2.2208 8.4342-23.309 0.19516-58.263 0.0413-83.169-0.0577l37.69-101.84a6.9133 6.9133 0 0 0-4.0847-8.8835z"/>
  <path d="m193.17 151.93a6.914 6.9141 0 0 0-4.2141 1.3154c-15.446 11.208-28.194 26.171-37.09 43.621a6.914 6.9141 0 0 0-2e-3 4e-3c-8.889 17.449-13.921 37.391-13.921 58.526v0.0498a6.914 6.9141 0 0 0 0 3e-3c0.0169 32.963 12.26 63.005 32.3 85.252a6.9133 6.9133 0 0 0 9.7634 0.51117 6.9133 6.9133 0 0 0 0.50963-9.7634c-17.773-19.735-28.73-46.461-28.745-76.006v-0.0499c0-18.941 4.5011-36.713 12.415-52.248v-2e-3c6.2464-12.252 14.677-23.021 24.623-31.913 2.8316 12.088 5.6362 25.109 8.4374 39.231 11.211 56.543 20.499 123.88 36.231 163.45l-0.2182-0.63741c0.15871 0.55017 0.31963 0.91072 0.3678 1.0239a6.9133 6.9133 0 0 0 9.0688 3.653 6.9133 6.9133 0 0 0 3.6546-9.067c-0.0155-0.0368 0.0824 0.17374 0.19326 0.55794a6.914 6.9141 0 0 0-0.2182-0.63898c-14.39-36.198-24.19-103.89-35.518-161.03a6.914 6.9141 0 0 0 0-2e-3c-3.643-18.365-7.2845-35.676-11.09-50.637a6.914 6.9141 0 0 0-6.5472-5.2069z"/>
  <ellipse cx="412.76" cy="143.3" rx="7.7456" ry="7.9131"/>
  <ellipse cx="109.58" cy="373.29" rx="7.7456" ry="7.9131"/>
  <path d="m412.19 215.95c-0.0255-2.0331 1.0517-3.5899 2.9604-4.186 0.57532-0.17954 1.1873-0.27609 1.789-0.31838 3.2636-0.22822 3.2747-0.21784 3.4439-3.6896 0.0591-1.2096 0.36865-2.3084 1.1514-3.2388 1.9789-2.3523 5.5983-1.8943 6.9652 0.87134 0.53862 1.09 0.64873 2.2638 0.52904 3.4312-0.19788 1.9342 0.45563 2.8495 2.4688 2.6284 0.78677-0.0863 1.6238 0.0423 2.4058 0.22183 2.1648 0.49791 3.4687 2.1553 3.4375 4.245-0.0319 2.1464-1.5361 3.8397-3.7105 4.277-1.4362 0.28964-3.2396-0.62319-4.2594 0.57292-0.90411 1.0612-0.14442 2.8055-0.42051 4.2259-0.4245 2.1816-2.1847 3.7998-4.1916 3.827-2.0627 0.0288-3.854-1.6533-4.2985-3.9602-0.27209-1.4092 0.53622-3.1495-0.49711-4.186-1.0278-1.0318-2.7234-0.22184-4.1062-0.47478-2.247-0.41173-3.6394-1.998-3.6673-4.2474z"/>
  <path d="m109.02 249.12c-0.0255-2.0331 1.0517-3.5899 2.9604-4.186 0.57531-0.17955 1.1873-0.27609 1.789-0.31839 3.2636-0.22821 3.2747-0.21784 3.4439-3.6896 0.059-1.2096 0.36864-2.3084 1.1514-3.2388 1.9789-2.3523 5.5984-1.8943 6.9652 0.87136 0.53861 1.09 0.64872 2.2638 0.52904 3.4312-0.1979 1.9342 0.45561 2.8495 2.4688 2.6284 0.78677-0.0862 1.6238 0.0423 2.4058 0.22182 2.1648 0.49792 3.4687 2.1553 3.4375 4.245-0.0319 2.1464-1.5361 3.8397-3.7105 4.277-1.4362 0.28964-3.2396-0.62319-4.2594 0.57292-0.90411 1.0613-0.14443 2.8056-0.42052 4.2259-0.4245 2.1815-2.1847 3.7998-4.1916 3.8269-2.0627 0.0288-3.854-1.6533-4.2985-3.9602-0.2721-1.4092 0.53621-3.1495-0.49712-4.186-1.0278-1.0317-2.7234-0.22182-4.1062-0.47477-2.247-0.41173-3.6394-1.998-3.6673-4.2474z"/>
</svg>
