<?xml version="1.0" encoding="UTF-8"?><svg id="Layer_2" xmlns="http://www.w3.org/2000/svg" viewBox="0 0 411.466 77.818"><defs><style>.cls-1,.cls-2{fill:#10112a;}.cls-2{stroke-miterlimit:10;stroke-width:.25px;}.cls-2,.cls-3{stroke:#10112a;}.cls-3{fill:none;stroke-linecap:round;stroke-linejoin:round;stroke-width:2.975px;}</style></defs><g id="Layer_1-2"><path class="cls-2" d="m151.578,66.072v-33.485c0-.653.352-1.005,1.005-1.005h18.201c10.558,0,13.826,3.872,13.826,12.067v.804c0,7.642-3.269,11.866-13.826,11.866h-14.279v9.754c0,.653-.352,1.005-1.006,1.005h-2.916c-.653,0-1.005-.352-1.005-1.005Zm18.904-14.48c6.938,0,9.2-1.81,9.2-7.19v-.754c0-5.933-2.263-7.291-9.2-7.291h-13.978v15.234h13.978Z"/><path class="cls-2" d="m189.895,66.072v-33.485c0-.653.352-1.005,1.005-1.005h2.916c.654,0,1.006.352,1.006,1.005v29.714h22.876c.654,0,1.006.352,1.006,1.005v2.766c0,.653-.352,1.005-1.006,1.005h-26.798c-.653,0-1.005-.352-1.005-1.005Z"/><path class="cls-2" d="m254.807,66.323l-3.017-5.983h-23.53l-3.066,6.033c-.252.503-.604.704-1.156.704h-3.369c-.754,0-1.106-.503-.754-1.207l17.194-33.585c.252-.503.604-.704,1.157-.704h3.52c.553,0,.904.201,1.156.704l17.145,33.585c.352.704,0,1.207-.754,1.207h-3.369c-.553,0-.905-.251-1.156-.754Zm-5.128-10.206l-9.604-19.206-9.703,19.206h19.307Z"/><path class="cls-2" d="m263.863,66.072v-33.485c0-.653.352-1.005,1.005-1.005h3.168c.503,0,.955.201,1.257.604l22.876,27.703v-27.301c0-.653.353-1.005,1.006-1.005h2.916c.653,0,1.006.352,1.006,1.005v33.485c0,.653-.353,1.005-1.006,1.005h-3.268c-.503,0-.956-.201-1.258-.604l-22.775-27.552v27.15c0,.653-.352,1.005-1.006,1.005h-2.916c-.653,0-1.005-.352-1.005-1.005Z"/><path class="cls-2" d="m303.437,66.072v-33.485c0-.653.352-1.005,1.005-1.005h3.168c.503,0,.955.201,1.257.604l22.876,27.703v-27.301c0-.653.353-1.005,1.006-1.005h2.916c.653,0,1.006.352,1.006,1.005v33.485c0,.653-.353,1.005-1.006,1.005h-3.268c-.503,0-.956-.201-1.258-.604l-22.775-27.552v27.15c0,.653-.352,1.005-1.006,1.005h-2.916c-.653,0-1.005-.352-1.005-1.005Z"/><path class="cls-2" d="m343.01,66.072v-33.485c0-.653.352-1.005,1.005-1.005h28.005c.653,0,1.006.352,1.006,1.005v2.766c0,.653-.353,1.005-1.006,1.005h-24.083v10.307h16.391c.653,0,1.006.352,1.006,1.005v2.614c0,.654-.353,1.006-1.006,1.006h-16.391v11.011h24.083c.653,0,1.006.352,1.006,1.005v2.766c0,.653-.353,1.005-1.006,1.005h-28.005c-.653,0-1.005-.352-1.005-1.005Z"/><path class="cls-2" d="m403.297,56.016l6.888,9.854c.452.653.15,1.207-.653,1.207h-3.47c-.503,0-.904-.201-1.206-.654l-6.737-9.904h-15.134v9.553c0,.653-.352,1.005-1.006,1.005h-2.916c-.653,0-1.005-.352-1.005-1.005v-33.485c0-.653.352-1.005,1.005-1.005h18.201c10.558,0,14.077,3.872,14.077,12.268v.604c0,6.436-2.011,10.307-8.044,11.564Zm3.066-12.117c0-6.184-2.312-7.542-9.401-7.542h-13.978v15.435h13.978c7.038,0,9.401-1.307,9.401-7.391v-.503Z"/><path class="cls-3" d="m112.459,41.647c-5.204,14.714-10.243,28.939-12.4,34.666-.004,0-13.846-.092-20.976-.094"/><path class="cls-3" d="m70.62,68.655c-.166-.021-.333-.043-.497-.069-6.832-.978-12.922-4.271-17.457-9.062-5.116-5.404-8.256-12.713-8.256-20.758"/><path class="cls-3" d="m88.776,52.041c-3.658-15.01-7.073-33.274-11.113-43.219.004,0,.006,0,.011.002,3.782.411,7.352,1.531,10.58,3.22,3.23,1.691,6.116,3.956,8.52,6.663,4.737,5.324,7.615,12.347,7.619,20.045v.013"/><path class="cls-3" d="m71.69,1.501h.004c2.17.004,4.133,2.8,5.962,7.309l.006.013c-1.07-.118-2.159-.178-3.262-.178"/><path class="cls-3" d="m77.508,68.734c3.775-.392,5.888,4.393,2.98,6.842-.503.424-1.017.647-1.541.647h-1.641c-2.537,0-4.728-2.903-6.685-7.568,1.239.156,2.501.238,3.782.238,1.049,0,2.085-.054,3.106-.158Z"/><path class="cls-3" d="m99.324,13.734c2.876-5.089,7.118-12.058,7.118-12.058,7.037.062,20.264.024,20.264.024-1.196,3.201-3.247,8.917-5.711,15.847"/><path class="cls-3" d="m51.294,1.631l20.401-.143c-.46,0-.912.126-1.356.368-3.381,1.841-1.795,7.101,2.044,6.844.667-.045,1.343-.069,2.023-.069,1.098,0,2.185.06,3.251.178h.011s.004.011.006.015c2.017,4.973,3.88,12.019,5.694,19.694,1.814,7.686,3.583,16.003,5.412,23.509.938,3.845,1.891,7.478,2.876,10.702.083.27.409.377.633.21,7.348-5.491,12.108-14.28,12.108-24.188"/><line class="cls-3" x1="41.368" y1="27.142" x2="51.294" y2="1.631"/><path class="cls-3" d="m51.705,65.422c-1.192,5.164-2.827,10.876-2.852,10.876-6.888.075-19.731,0-26.602-.021l11.123-28.59"/><path class="cls-3" d="m70.147,68.646c-.009-.019-.017-.039-.023-.06-4.074-9.748-6.655-27.117-9.704-41.739-.983-4.712-1.963-9.142-2.978-12.935-3.933,2.715-7.19,6.348-9.465,10.591-2.272,4.243-3.562,9.097-3.562,14.25v.013c.004,8.041,3.142,15.344,8.256,20.745"/><circle class="cls-1" cx="113.25" cy="10.109" r="2.03"/><circle class="cls-1" cx="33.791" cy="69.108" r="2.03"/><path class="cls-1" d="m113.102,28.744c-.007-.522.276-.921.776-1.074.151-.046.311-.071.469-.082.855-.059.858-.056.903-.947.015-.31.097-.592.302-.831.519-.603,1.467-.486,1.826.224.141.28.17.581.139.88-.052.496.119.731.647.674.206-.022.426.011.63.057.567.128.909.553.901,1.089-.008.551-.403.985-.972,1.097-.376.074-.849-.16-1.116.147-.237.272-.038.72-.11,1.084-.111.56-.573.975-1.099.982-.541.007-1.01-.424-1.127-1.016-.071-.362.141-.808-.13-1.074-.269-.265-.714-.057-1.076-.122-.589-.106-.954-.512-.961-1.09Z"/><path class="cls-1" d="m33.645,37.255c-.007-.522.276-.921.776-1.074.151-.046.311-.071.469-.082.855-.059.858-.056.903-.947.015-.31.097-.592.302-.831.519-.603,1.467-.486,1.826.224.141.28.17.581.139.88-.052.496.119.731.647.674.206-.022.426.011.63.057.567.128.909.553.901,1.089-.008.551-.403.985-.972,1.097-.376.074-.849-.16-1.116.147-.237.272-.038.72-.11,1.084-.111.56-.573.975-1.099.982-.541.007-1.01-.424-1.127-1.016-.071-.362.141-.808-.13-1.074-.269-.265-.714-.057-1.076-.122-.589-.106-.954-.512-.961-1.09Z"/></g></svg>